<?xml version="1.0" encoding="UTF-8"?>
<svg id="Capa_2" data-name="Capa 2" xmlns="http://www.w3.org/2000/svg" viewBox="0 0 1222.59 457.34">
  <defs>
    <style>
      .cls-1 {
        fill: #1c1c1b;
      }

      .cls-2 {
        fill: #524746;
      }

      .cls-3 {
        fill: #e45c2f;
      }

      .cls-4 {
        fill: #606060;
      }

      .cls-5 {
        fill: #3c3c3a;
      }

      .cls-6 {
        fill: #dbdbdb;
      }

      .cls-7 {
        fill: #8bb572;
      }

      .cls-8 {
        fill: #888686;
      }
    </style>
  </defs>
  <g id="Capa_1-2" data-name="Capa 1">
    <g>
      <g>
        <g>
          <path class="cls-1" d="M758.17,254.72v.81c0,4.71-3.82,8.52-8.52,8.52h-129.94c-4.71,0-8.52,3.82-8.52,8.52v35.11c0,4.71,3.82,8.52,8.52,8.52h123.82c4.71,0,8.52,3.82,8.52,8.52h0c0,4.71-3.82,8.52-8.52,8.52h-123.82c-4.71,0-8.52,3.82-8.52,8.52v40.58c0,4.71,3.82,8.52,8.52,8.52h130.59c4.71,0,8.52,3.82,8.52,8.52v.81c0,4.71-3.82,8.52-8.52,8.52h-153.09c-4.71,0-8.52-3.82-8.52-8.52v-145.49c0-4.71,3.82-8.52,8.52-8.52h152.43c4.71,0,8.52,3.82,8.52,8.52Z"/>
          <path class="cls-1" d="M912.25,250.14l92.67,145.49c3.61,5.67-.46,13.1-7.19,13.1h-5.11c-2.92,0-5.64-1.5-7.2-3.97l-17.7-27.98c-1.56-2.47-4.28-3.97-7.2-3.97h-128.84c-2.94,0-5.66,1.51-7.22,4l-17.49,27.92c-1.56,2.49-4.29,4-7.22,4h-5.31c-6.68,0-10.76-7.33-7.25-13.01l90.12-145.49c1.55-2.51,4.29-4.03,7.25-4.03h20.5c2.91,0,5.62,1.49,7.19,3.94ZM944.64,342.95l-42.32-67.92c-3.33-5.35-11.12-5.36-14.46-.01l-42.48,67.92c-3.55,5.68.53,13.04,7.23,13.04h84.8c6.69,0,10.77-7.35,7.23-13.03Z"/>
          <path class="cls-1" d="M1162.64,246.2c12.23,0,43.03-.81,54.6,17.25,6.33,10.55,7.64,53.37.66,64.12-12.67,19.48-36.69,17.45-54.82,17.45h-99.37c-4.71,0-8.52,3.82-8.52,8.52v46.67c0,4.71-3.82,8.52-8.52,8.52h-5.45c-4.71,0-8.52-3.82-8.52-8.52v-145.49c0-4.71,3.82-8.52,8.52-8.52h121.43ZM1154.12,326.96c15.07,0,35.16,1.22,42.81-10.75,4.59-6.9,4.15-35.11.44-41.4-7.43-12.18-35.38-10.75-44.99-10.75h-88.67c-4.71,0-8.52,3.82-8.52,8.52v45.86c0,4.71,3.82,8.52,8.52,8.52h90.41Z"/>
        </g>
        <g>
          <path class="cls-1" d="M786.31,98.42c-4.54,0-8.24-3.57-8.51-8.1-.35-5.72-1.72-12.23-6.69-16.85-6.33-6.29-17.69-7.31-29.48-7.31h-78.84c-13.32,0-36.04-.81-45.65,7.91-9.39,8.32-8.95,23.13-8.95,37.13v26.79c0,18.47-.66,38.35,9.83,47.89,9.61,8.32,31.67,7.1,42.59,7.1h73.6c16.16,0,30.14.2,39.09-14,2.71-4.41,3.32-13.85,3.46-23.83.06-4.75-3.77-8.64-8.52-8.64h-71.8c-4.71,0-8.52-3.82-8.52-8.52v-.41c0-4.71,3.82-8.52,8.52-8.52h95.87c4.71,0,8.52,3.82,8.52,8.52v7.1c0,11.77,1.75,38.76-13.1,52.76-12.45,11.97-31.67,13.39-48.27,13.39h-81.9c-10.92,0-42.15.81-57.44-13.39-14.63-13.39-14.41-36.93-14.41-51.54v-35.31c0-11.57-.87-35.51,13.76-48.9,14.41-13.6,37.57-13.39,57.66-13.39h80.81c13.76,0,42.81,2.23,55.04,20.7,3.83,5.55,5.08,13.19,5.49,20.47.27,4.87-3.64,8.95-8.52,8.95h-3.61Z"/>
          <path class="cls-1" d="M859.55,56.83v145.49c0,4.71-3.82,8.52-8.52,8.52h-5.23c-4.71,0-8.52-3.82-8.52-8.52V56.83c0-4.71,3.82-8.52,8.52-8.52h5.23c4.71,0,8.52,3.82,8.52,8.52Z"/>
          <path class="cls-1" d="M1075.27,95.99c-4.43,0-8.1-3.4-8.49-7.81-.46-5.29-1.77-10.37-5.43-13.9-5.9-5.88-11.36-8.12-33.42-8.12h-70.98c-10.7,0-28.83-.61-36.91,13.39-2.62,4.26-3.28,25.16,0,29.83,6.99,10.96,24.68,10.96,41.06,10.96h70.76c20.53,0,44.12,0,56.57,19.48,6.55,9.94,6.55,40.38.44,50.73-13.1,22.12-39.75,20.29-63.55,20.29h-74.47c-14.85,0-38.22,0-50.01-16.03-5.38-7.58-6.07-15.3-6.13-25.69-.03-4.74,3.79-8.6,8.52-8.6h4.93c4.55,0,8.27,3.58,8.51,8.12.34,6.31,1.52,14.37,5.35,18.06,6.77,6.9,17.91,6.29,27.52,6.29h65.08c18.78,0,45.43,1.22,53.73-11.97,2.84-4.67,3.28-26.38,0-31.25-8.08-12.18-17.69-10.55-38.44-10.55h-68.58c-22.06,0-50.23-.61-62.03-20.29-6.55-10.75-6.77-38.96,0-49.72,13.1-20.29,36.69-20.9,64.21-20.9h71.2c18.56,0,32.98,3.04,44.55,14.61,6.94,6.92,8.89,14.44,9.42,24.08.27,4.88-3.62,9-8.51,9h-4.9Z"/>
        </g>
        <rect class="cls-1" x="1139.32" y="122.82" width="48.29" height="26.34" rx="6.03" ry="6.03"/>
      </g>
      <g>
        <path class="cls-5" d="M407.18,338.4h-84.96l-.41-.2c-1.01-.5-1.89-.93-2.73-1.31l-1.15-.52v-40.67l2.11.17c2.37.19,4.82.29,7.26.29,29.87,0,57.71-13.38,76.39-36.72l3.48-4.34v83.3ZM323.13,334.49h80.14v-68.49c-19.31,21.71-46.7,34.06-75.96,34.06-1.83,0-3.66-.05-5.47-.16v33.96c.41.2.84.41,1.29.63Z"/>
        <g>
          <path class="cls-3" d="M418.44,104.64c0,8.62-3.35,16.72-9.41,22.77l-68.53,68.52c-6.09,6.08-14.18,9.44-22.77,9.44s-16.32-3.2-22.36-9.04v-29.64c0-16.71-8.33-32.12-22.29-41.26l-52.86-34.73c1.54-3.28,3.63-6.25,6.22-8.84L294.95,13.35c6.08-6.09,14.17-9.44,22.77-9.44s16.69,3.35,22.77,9.44l68.53,68.52c6.07,6.07,9.41,14.15,9.41,22.77Z"/>
          <path class="cls-5" d="M411.79,79.1L343.26,10.59c-6.81-6.82-15.89-10.59-25.53-10.59s-18.72,3.76-25.53,10.59l-68.52,68.52c-3.35,3.33-5.94,7.24-7.73,11.59l-.61,1.48,55.61,36.51c12.85,8.42,20.52,22.63,20.52,38.01v31.26l.73.73c6.82,6.82,15.9,10.59,25.53,10.59s18.71-3.76,25.53-10.59l68.53-68.52c6.81-6.8,10.56-15.86,10.56-25.53s-3.75-18.72-10.56-25.53ZM317.72,205.36c-8.4,0-16.32-3.2-22.36-9.04v-29.64c0-16.71-8.33-32.12-22.29-41.26l-52.86-34.73c1.54-3.28,3.63-6.25,6.22-8.84L294.95,13.35c6.08-6.09,14.17-9.44,22.77-9.44s16.69,3.35,22.77,9.44l68.53,68.52c6.07,6.07,9.41,14.15,9.41,22.77s-3.35,16.72-9.41,22.77l-68.53,68.52c-6.09,6.08-14.18,9.44-22.77,9.44Z"/>
        </g>
        <g>
          <path class="cls-4" d="M201.97,302.57v23.54c-10.22,1.97-20.73,4.54-31.32,7.68,8.05-6.86,17.14-16.16,31.32-31.22Z"/>
          <path class="cls-5" d="M162.38,338.28l7.01-5.98c8.14-6.94,17.23-16.27,31.16-31.08l3.38-3.59v30.08l-1.58.3c-10.15,1.95-20.62,4.52-31.13,7.64l-8.83,2.62ZM200.02,307.48c-8.91,9.42-15.77,16.48-21.79,22.13,7.35-1.99,14.64-3.7,21.79-5.11v-17.02Z"/>
        </g>
        <g>
          <path class="cls-5" d="M291.46,166.69v50.61l-10.42-6.84v-43.78c0-11.85-5.91-22.8-15.82-29.31l-117.9-77.4c-2.28-1.48-4.97-1.6-7.42-.31-2.36,1.29-3.78,3.67-3.78,6.37v113.76c-1.6-.12-3.29-.21-4.96-.13h-.33c-1.65.05-3.36.17-5.13.38v-114.01c0-6.5,3.55-12.45,9.26-15.53,5.72-3.09,12.64-2.79,18.07.78l117.9,77.4c12.85,8.42,20.52,22.63,20.52,38.01Z"/>
          <path class="cls-5" d="M273.07,125.43l-117.89-77.4c-6.63-4.38-15.09-4.74-22.07-.96-6.98,3.76-11.32,11.04-11.32,18.97v118.55l2.27-.36c.55-.09,1.09-.18,1.63-.25,1.78-.22,3.55-.35,5.26-.39h.38c1.52-.09,3.14,0,4.65.12h.22c.55.07,1.11.13,1.67.18l2.16.23v-118.09c0-1.28.62-2.32,1.72-2.92,1.15-.61,2.37-.56,3.44.13l117.9,77.38c8.8,5.79,14.05,15.53,14.05,26.05v45.89l18.23,11.97v-57.85c0-16.71-8.33-32.12-22.29-41.26ZM291.46,217.3l-10.42-6.84v-43.78c0-11.85-5.91-22.8-15.82-29.31l-117.9-77.4c-2.28-1.48-4.97-1.6-7.42-.31-2.36,1.29-3.78,3.67-3.78,6.37v113.76c-1.6-.12-3.29-.21-4.96-.13h-.33c-1.65.05-3.36.17-5.13.38v-114.01c0-6.5,3.55-12.45,9.26-15.53,5.72-3.09,12.64-2.79,18.07.78l117.9,77.4c12.85,8.42,20.52,22.63,20.52,38.01v50.61Z"/>
        </g>
        <g>
          <path class="cls-4" d="M235.46,260.4v61.26c-6.25.42-12.68,1.11-19.17,2.04v-37.33c6.87-8.32,13.29-17.02,19.17-25.98Z"/>
          <path class="cls-5" d="M214.34,325.97v-40.29l.45-.54c6.82-8.25,13.23-16.93,19.04-25.8l3.59-5.47v69.63l-1.82.12c-6.13.41-12.53,1.09-19.02,2.03l-2.23.32ZM218.24,287.08v34.38c5.18-.7,10.3-1.25,15.26-1.62v-53.03c-4.77,6.94-9.89,13.73-15.26,20.27Z"/>
        </g>
        <path class="cls-8" d="M539.44,338.4h-20.46l-.4-.2c-15.94-7.8-31.38-16.67-59.17-46.26-16.38-17.44-30.53-37.07-42.1-58.35l-.09-.22c-.46-1.13-1.29-2.08-2.3-2.6l-1.09-.48c-.12-.04-.22-.06-.35-.09-.16-.04-.26-.06-.38-.08-.22-.04-.35-.05-.48-.05l-.18-.03c-.08,0-.16,0-.29.01l-.73.06c-.05,0-.18.04-.39.09-.14.03-.23.05-.33.08l-.18.08c-.12.04-.22.08-.31.12l-.55.26c-.18.12-.33.22-.47.33-.2.14-.29.2-.38.29-.12.1-.26.25-.42.43-.09.09-.16.17-.21.23l-.12.16c-.05.06-.09.14-.14.22-.16.26-.25.42-.34.59l-.13.25c-13.91,31.9-45.35,52.51-80.16,52.51-2.4,0-4.95-.12-7.59-.35-.56-.04-1.17-.09-1.78-.16-1.68-.2-3.42-.44-5.21-.74-2.06-.36-3.72-.69-5.21-1.04-.81-.18-1.64-.39-2.45-.61-4.62-1.22-9.21-2.85-13.61-4.83-1.76-.79-8.78-4.54-10.42-5.57-14.73-9.18-26.28-22.36-33.4-38.07l-.14-.34c-.27-.79-.73-1.51-1.33-2.04l-.18-.2c-.36-.44-.85-.82-1.42-1.15-2.51-1.34-5.69-.39-7.04,2.14-5.81,10.77-12.42,21.3-19.65,31.31-1.16,1.6-2.34,3.2-3.54,4.79-1.86,2.47-3.57,4.67-5.21,6.71-1.28,1.58-2.5,3.06-3.7,4.52l-1.98,2.33c-1.67,1.97-3.32,3.85-5.03,5.76-.14,1.08-.29,2.04-.44,2.94-.18,1.02-.4,2.08-.68,3.26-.91,3.87-2.23,7.54-3.92,10.94-6.69,13.37-19.82,23.48-36,27.73-3.06.82-6.21,1.42-9.35,1.77-1.81,1.07-3.79,2.16-6.08,3.35l-.42.22h-1.86v3.91h-.07v.21h.03s0,0,0,0c6.64-2.64,12.54-4.83,17.94-6.67.73-.25,1.46-.49,2.2-.73l1.3-.43c1.39-.46,2.76-.89,4.14-1.3,1.48-.47,2.99-.92,4.49-1.35,8.05-6.91,17.08-16.2,30.83-30.81l3.36-3.62c1.9-2.04,3.61-3.93,5.22-5.79,1.28-1.47,2.51-2.89,3.72-4.32l1.48-1.8c.16-.18.29-.35.42-.52,6.85-8.28,13.26-16.97,19.08-25.83l3.58-5.47v65.72c3.29-.21,6.82-.34,10.36-.39h.05v-63.58l3.46,4.26c8.14,10,18.42,18.5,29.75,24.6,1.58.86,8.5,4.08,10.43,4.86,4.74,1.86,9.64,3.36,14.52,4.47.51.1,1.02.22,1.52.33,2.27.46,3.83.73,5.2.92,1.86.29,3.48.48,5.13.64h.21c.7.09,1.33.14,1.95.18,2.42.2,4.86.3,7.3.3,29.87,0,57.72-13.39,76.39-36.72l3.48-4.34v83.29h-76.64c.69.39,1.39.79,2.11,1.22,6.43,3.83,12.58,8.23,18.27,13.07,1.16.98,2.28,1.97,3.4,2.97h52.86v54.81c0,2.88,2.34,5.21,5.21,5.21s5.21-2.33,5.21-5.21v-54.81h121.85c4.77,0,8.63-3.87,8.63-8.63s-3.87-8.63-8.63-8.63ZM417.59,338.4v-83.55l3.58,5.42c9.11,13.8,19.41,26.86,30.64,38.82,15.13,16.09,27.81,27.45,39.92,35.76l5.2,3.57h-79.34Z"/>
        <path class="cls-5" d="M539.44,334.49h-19.54c-15.44-7.58-30.53-16.37-57.64-45.23-16.12-17.16-30.07-36.48-41.45-57.43-.81-1.95-2.29-3.59-4.19-4.57l-1.32-.59-.29-.1c-.2-.05-.38-.1-.59-.16-.27-.08-.53-.13-.73-.16-.25-.04-.51-.07-.78-.08-.31-.04-.6-.04-1.02-.01l-.87.07c-.27.04-.52.08-1.02.21-.26.07-.52.13-.77.23-.22.08-.43.16-.64.25-.18.06-.35.14-.46.2-.21.1-.42.21-.6.34-.21.13-.43.29-.76.53-.22.16-.42.31-.62.5-.21.2-.43.42-.68.69-.17.2-.35.4-.47.57-.18.22-.34.46-.43.62-.18.29-.35.57-.48.83l-.2.4c-13.28,30.52-43.35,50.23-76.61,50.23-2.28,0-4.73-.12-7.29-.34-.53-.04-1.08-.08-1.64-.14-1.6-.18-3.28-.43-4.99-.72-1.98-.34-3.57-.65-4.99-.99-.78-.18-1.56-.38-2.33-.59-4.41-1.17-8.8-2.72-13.01-4.62-1.59-.7-8.46-4.39-9.96-5.31-14.06-8.78-25.09-21.35-31.9-36.39l-.04-.08c-.47-1.34-1.25-2.54-2.27-3.48-.66-.77-1.48-1.43-2.46-1.97-4.44-2.37-9.97-.7-12.34,3.71-5.73,10.61-12.24,21-19.39,30.89-1.13,1.59-2.32,3.16-3.49,4.73-1.84,2.43-3.5,4.6-5.13,6.6-1.25,1.55-2.47,3.03-3.66,4.45l-1.94,2.3c-1.78,2.1-3.54,4.11-5.38,6.13l-.43.47-.07.63c-.14,1.25-.3,2.33-.48,3.32-.16.96-.36,1.97-.63,3.06-.83,3.55-2.06,6.95-3.61,10.08-6.2,12.36-18.41,21.73-33.52,25.7-3.01.81-6.11,1.38-9.18,1.71l-.43.04-.38.22c-1.72,1.03-3.62,2.1-5.82,3.24h-4.8v3.91h-.12l.12,9.87,2.68-1.08c7.67-3.09,14.34-5.59,20.38-7.64.72-.25,1.45-.48,2.17-.72l1.29-.43c1.35-.44,2.72-.87,4.09-1.29,1.6-.49,3.2-.99,4.8-1.45l.4-.12.33-.27c8.28-7.06,17.45-16.47,31.47-31.37l3.4-3.66c1.91-2.06,3.65-3.98,5.29-5.87,1.3-1.48,2.54-2.93,3.76-4.37l1.48-1.8c.18-.2.35-.42.48-.59,5.53-6.69,10.79-13.67,15.7-20.81v56.99l2.12-.2c.55-.04,1.11-.08,1.65-.12h.25c3.36-.21,6.82-.34,10.31-.39.65-.01,1.29-.01,1.94-.01h1.95v-56.71c7.83,8.63,17.24,16.03,27.45,21.52,1.69.91,8.78,4.22,10.85,5.05,4.95,1.93,10.03,3.49,15.1,4.64.53.13,1.07.25,1.61.35,2.34.47,3.96.76,5.4.96,1.94.3,3.67.51,5.48.68h.21c.64.08,1.28.14,1.89.18,2.47.2,5.03.3,7.58.3,29.26,0,56.65-12.34,75.96-34.06v68.49h-89.64l8.23,3.74c.1.04.2.08.36.17,1.12.56,2.23,1.13,3.32,1.73,1.67.87,3.35,1.81,5.1,2.85,6.24,3.71,12.2,7.98,17.73,12.68,1.32,1.12,2.59,2.25,3.85,3.4l.56.51h50.47v50.9c0,5.03,4.09,9.11,9.11,9.11s9.11-4.09,9.11-9.11v-50.9h117.94c6.91,0,12.54-5.62,12.54-12.54s-5.62-12.54-12.54-12.54ZM539.44,355.66h-121.85v54.81c0,2.88-2.33,5.21-5.21,5.21s-5.21-2.33-5.21-5.21v-54.81h-52.86c-1.12-1-2.24-1.99-3.4-2.97-5.69-4.84-11.84-9.24-18.27-13.07-.72-.43-1.42-.83-2.11-1.22h76.64v-83.29l-3.48,4.34c-18.67,23.33-46.52,36.72-76.39,36.72-2.45,0-4.88-.1-7.3-.3-.62-.04-1.25-.09-1.95-.17h-.21c-1.65-.17-3.27-.36-5.13-.65-1.37-.2-2.93-.47-5.2-.92-.51-.1-1.02-.22-1.52-.33-4.88-1.11-9.78-2.6-14.52-4.47-1.93-.78-8.85-4-10.43-4.86-11.33-6.09-21.61-14.6-29.75-24.6l-3.46-4.26v63.58h-.05c-3.54.05-7.07.18-10.36.39v-65.72l-3.58,5.47c-5.82,8.87-12.23,17.55-19.08,25.83-.13.17-.26.34-.42.52l-1.48,1.8c-1.21,1.43-2.45,2.85-3.72,4.32-1.61,1.86-3.32,3.75-5.22,5.79l-3.36,3.62c-13.75,14.61-22.79,23.89-30.83,30.81-1.5.43-3.01.89-4.49,1.35-1.38.42-2.75.85-4.14,1.3l-1.3.43c-.74.23-1.47.48-2.2.73-5.4,1.84-11.3,4.02-17.94,6.67h0s-.03,0-.03,0v-.21h.07v-3.91h1.86l.42-.22c2.29-1.19,4.27-2.28,6.08-3.35,3.14-.35,6.29-.95,9.35-1.77,16.18-4.26,29.31-14.36,36-27.73,1.69-3.4,3.01-7.07,3.92-10.94.27-1.17.49-2.24.68-3.26.16-.9.3-1.86.44-2.94,1.71-1.9,3.36-3.79,5.03-5.76l1.98-2.33c1.2-1.46,2.42-2.94,3.7-4.52,1.64-2.03,3.35-4.23,5.21-6.71,1.2-1.59,2.38-3.19,3.54-4.79,7.23-10.01,13.84-20.55,19.65-31.31,1.35-2.53,4.53-3.48,7.04-2.14.57.33,1.05.7,1.42,1.15l.18.2c.6.53,1.05,1.25,1.33,2.04l.14.34c7.12,15.72,18.67,28.89,33.4,38.07,1.64,1.03,8.66,4.78,10.42,5.57,4.4,1.98,8.98,3.61,13.61,4.83.81.22,1.64.43,2.45.61,1.48.35,3.15.68,5.21,1.04,1.78.3,3.53.55,5.21.74.61.06,1.22.12,1.78.16,2.64.23,5.2.35,7.59.35,34.8,0,66.25-20.61,80.16-52.51l.13-.25c.09-.17.18-.33.34-.59.05-.08.09-.16.14-.22l.12-.16c.05-.06.12-.14.21-.23.16-.18.3-.33.42-.43.09-.09.18-.14.38-.29.14-.1.29-.21.47-.33l.55-.26c.09-.04.2-.08.31-.12l.18-.08c.09-.03.18-.05.33-.08.21-.05.34-.09.39-.09l.73-.06c.13-.01.21-.01.29-.01l.18.03c.13,0,.26.01.48.05.12.01.22.04.38.08.13.03.23.05.35.09l1.09.48c1.02.52,1.85,1.47,2.3,2.6l.09.22c11.56,21.28,25.72,40.91,42.1,58.35,27.79,29.6,43.23,38.46,59.17,46.26l.4.2h20.46c4.77,0,8.63,3.87,8.63,8.63s-3.87,8.63-8.63,8.63Z"/>
        <path class="cls-5" d="M491.73,334.83c-12.11-8.31-24.79-19.66-39.92-35.76-11.22-11.95-21.52-25.01-30.64-38.82l-3.58-5.42v83.55h79.34l-5.2-3.57ZM421.5,334.49v-66.77c8.32,12.03,17.54,23.45,27.47,34.04,13.27,14.11,24.71,24.66,35.56,32.73h-63.03Z"/>
        <g>
          <g>
            <path class="cls-5" d="M320,295.86c-.62-.04-1.25-.09-1.95-.17h-.21c-1.65-.17-3.27-.36-5.13-.65-1.37-.2-2.93-.47-5.2-.92-.51-.1-1.02-.22-1.52-.33l-2.38-.55v37.53l1.33.44c.87.3,1.72.59,2.59.9,1.58.56,3.28,1.21,5.21,1.99,1.33.53,2.76,1.16,4.47,1.93.14.07.29.13.44.2l.3.13c.35.16.7.31,1.07.5l2.83,1.41v-42.28l-1.84-.12ZM307.51,298.1c1.94.38,3.36.62,4.64.81,1.94.3,3.67.51,5.48.68h.21s.07.01.09.03v32.46c-1.35-.6-2.58-1.12-3.74-1.59-1.98-.81-3.74-1.47-5.35-2.04-.44-.16-.89-.31-1.33-.47v-29.87Z"/>
            <path class="cls-6" d="M317.93,299.61v32.46c-1.35-.6-2.58-1.12-3.74-1.59-1.98-.81-3.74-1.47-5.35-2.04-.44-.16-.89-.31-1.33-.47v-29.87c1.94.38,3.36.62,4.64.81,1.94.3,3.67.51,5.48.68h.21s.07.01.09.03Z"/>
          </g>
          <g>
            <path class="cls-6" d="M214.34,291.76v30.26c-.09.01-.18.03-.27.04l-.3.05c-1.77.26-3.54.53-5.26.83-1.54.25-3.06.51-4.58.79v-20.4l2.86-3.09c1.91-2.06,3.65-3.98,5.29-5.87.77-.89,1.52-1.74,2.27-2.62Z"/>
            <path class="cls-5" d="M214.75,285.17c-.13.17-.26.34-.42.52l-1.48,1.8c-1.21,1.43-2.45,2.85-3.72,4.32-1.61,1.86-3.32,3.75-5.22,5.79l-3.89,4.19v26.74l2.37-.52c.33-.08.64-.13.95-.2l.65-.13c.05-.01.1-.01.14-.03l.16-.03c1.61-.31,3.22-.59,4.87-.85,1.71-.3,3.44-.57,5.17-.82l.33-.05c.59-.09,1.17-.17,1.74-.26l1.85-.26v-44.66l-3.49,4.43ZM203.92,323.74v-20.4l2.86-3.09c1.91-2.06,3.65-3.98,5.29-5.87.77-.89,1.52-1.74,2.27-2.62v30.26c-.09.01-.18.03-.27.04l-.3.05c-1.77.26-3.54.53-5.26.83-1.54.25-3.06.51-4.58.79Z"/>
          </g>
          <g>
            <path class="cls-5" d="M305.6,226.6l-78.63-51.61c-5.35-3.52-12.17-3.8-17.8-.77-5.65,3.03-9.15,8.91-9.15,15.31v96.89l5.42-6.32c1.2-1.46,2.42-2.94,3.7-4.52,1.64-2.03,3.35-4.23,5.21-6.71,1.2-1.59,2.38-3.19,3.54-4.8l.36-.51v-72.53l77.37,50.78c5,3.29,7.99,8.85,7.99,14.84v25.79l1.46.38c.81.22,1.64.43,2.45.61,1.48.35,3.15.68,5.21,1.04,1.78.3,3.53.55,5.21.74.61.06,1.22.12,1.82.17l2.08.14v-28.88c0-12.16-6.07-23.4-16.24-30.07ZM317.93,281.3c-1.47-.18-2.99-.4-4.54-.66-1.98-.34-3.57-.65-4.99-.99-.3-.06-.59-.14-.89-.21v-22.77c0-7.32-3.65-14.08-9.77-18.1l-78.62-51.61c-.94-.62-2.06-.69-3.11-.16-1.07.56-1.68,1.56-1.68,2.73v72.79c-1.03,1.42-2.07,2.83-3.12,4.22-1.84,2.43-3.5,4.6-5.13,6.6-.73.91-1.45,1.78-2.16,2.66v-86.26c0-4.97,2.72-9.52,7.1-11.88s9.66-2.12,13.82.59l78.63,51.61c9.06,5.95,14.47,15.96,14.47,26.81v24.64Z"/>
            <path class="cls-6" d="M317.93,256.67v24.64c-1.47-.18-2.99-.4-4.54-.66-1.98-.34-3.57-.65-4.99-.99-.3-.06-.59-.14-.89-.21v-22.77c0-7.32-3.65-14.08-9.77-18.1l-78.62-51.61c-.94-.62-2.06-.69-3.11-.16-1.07.56-1.68,1.56-1.68,2.73v72.79c-1.03,1.42-2.07,2.83-3.12,4.22-1.84,2.43-3.5,4.6-5.13,6.6-.73.91-1.45,1.78-2.16,2.66v-86.26c0-4.97,2.72-9.52,7.1-11.88s9.66-2.12,13.82.59l78.63,51.61c9.06,5.95,14.47,15.96,14.47,26.81Z"/>
          </g>
        </g>
        <path class="cls-7" d="M191.77,241.9l1.72-.51h0s-1.73.46-1.73.46c-9.24-34.43-27.33-54.93-50.91-57.77-.55-.05-1.11-.12-1.65-.17h-.22c-1.51-.13-3.13-.22-4.65-.14h-.38c-1.71.05-3.46.18-5.26.4-.53.08-1.08.17-1.61.25-15.34,2.64-28.98,13.19-38.41,29.69-6.46,11.28-11.26,24.84-14.69,41.47-2.16,10.42-4.17,21.51-2.98,32.55.04.47.09.86.13,1.24.13,1.09.31,2.21.56,3.46.13.69.3,1.38.46,2.04.21.83.43,1.64.66,2.45.21.72.44,1.42.69,2.11l.14.43c.07.2.13.39.21.57l.18.47c.21.56.44,1.12.69,1.67.2.44.39.87.6,1.31,1.32,2.73,2.86,5.27,4.75,7.77.29.4.56.73.83,1.07l.4.5c.62.75,1.28,1.5,1.97,2.21.33.35.64.68.95.98l.14.14c.4.4.82.79,1.24,1.16,8.42,7.71,19.84,12.14,33.97,13.19,2.25.17,4.64.35,6.93.48l1.85.09v16.95l.77-.33c.95-.43,1.93-.85,2.93-1.28.01,0,.09-.04.2-.08,1.33-.56,2.58-1.08,3.82-1.59l2.66-1.09-.05-5.48h.1v-6.81l1.93-.04c3.5-.06,6.6-.25,9.47-.56h.14c3.05-.33,6.11-.9,9.08-1.69,15.12-3.98,27.33-13.35,33.52-25.72,1.56-3.11,2.77-6.51,3.61-10.08.26-1.09.47-2.1.64-3.05.18-1,.34-2.08.47-3.32,1.95-16.35-2.73-33.84-5.83-45.42ZM183.56,299.1c-1.45,2.89-3.36,5.6-5.66,8.07-2.3,2.47-5,4.69-8.03,6.6-6.07,3.82-13.26,6.25-20.81,7.06-2.58.26-5.38.42-8.33.47l-1.98.04v-14.26l.59-.57c1.73-1.69,7.38-7.32,25-24.86,2.02-2.02,2.02-5.33,0-7.37-2.03-2.02-5.34-2.02-7.37.01l-18.22,18.23v-24l.59-.57c1.41-1.38,5.31-5.23,16.52-16.39,2.02-2.03,2.02-5.34,0-7.36-.99-.99-2.29-1.54-3.67-1.54s-2.71.55-3.68,1.54l-9.75,9.73v-14.4l.59-.57c1.29-1.26,4.69-4.62,13.96-13.83.98-.98,1.52-2.29,1.52-3.68s-.55-2.68-1.52-3.66c-.99-1-2.29-1.55-3.68-1.55s-2.71.55-3.68,1.54l-7.17,7.19v-14.84c0-2.71-2.11-4.97-4.8-5.16l-.27-.04s-.05-.01-.13-.01c-2.15,0-4.1,1.35-4.86,3.36-.23.62-.35,1.22-.35,1.85v14.36l-7.45-7.46c-2.03-2.02-5.34-2.02-7.37.01-.99.98-1.52,2.28-1.52,3.67s.53,2.71,1.52,3.68l15.17,15.16v29.66l-20.05-20.07c-2.03-2.02-5.34-2.02-7.37.01-.99.98-1.52,2.28-1.52,3.67s.53,2.7,1.52,3.67l27.42,27.42v9.04l-12.03-12.03c-.99-1-2.29-1.55-3.68-1.55s-2.71.55-3.68,1.54c-.99.99-1.52,2.29-1.52,3.67s.53,2.71,1.52,3.68l19.4,19.4v13.41l-2.07-.13c-1.93-.12-3.79-.25-5.61-.38l-.66-.05c-14.06-1.04-24.27-5.66-31.18-14.13-.26-.3-.51-.61-.79-.99-3.27-4.32-5.4-9.11-6.48-14.61-2.06-10.44,0-22.08,2.28-33.11,3.22-15.59,7.64-28.15,13.53-38.42,4.52-7.92,14.56-21.64,31.02-24.53,1.68-.3,3.44-.48,5.23-.53,1.71-.07,3.35,0,5.17.2,26.07,2.83,37.86,32.64,42.58,50.16,5.16,19.22,9.56,39.24,1.89,54.56Z"/>
        <g>
          <g>
            <path class="cls-2" d="M400.37,443.85c-4.95-19.78-17.79-57.08-48.13-84.79-1.26-1.15-2.55-2.28-3.85-3.4-5.53-4.7-11.5-8.97-17.73-12.68-1.76-1.04-3.44-1.98-5.1-2.85-1.09-.61-2.2-1.17-3.32-1.73-.17-.09-.26-.13-.35-.17-1.08-.53-1.95-.96-2.8-1.34-.43-.22-.78-.38-1.13-.53l-.3-.13c-.16-.07-.3-.13-.44-.2-1.71-.77-3.14-1.39-4.47-1.93-1.93-.78-3.63-1.43-5.21-1.99-.87-.31-1.72-.6-2.59-.9-4.27-1.45-8.8-2.73-13.48-3.83l-.7-.16c-1.16-.27-2.32-.55-3.49-.77l-.98-.17c-2.15-.43-3.75-.72-5.22-.94-9.74-1.58-20.25-2.34-31.28-2.27-.65,0-1.3,0-1.95.01-3.49.05-6.95.18-10.31.39h-.25c-.55.04-1.11.08-1.65.12-6.17.42-12.57,1.09-19.06,2.03l-.17.03c-.59.09-1.16.17-1.74.26l-.33.05c-1.73.25-3.48.52-5.17.82-1.65.26-3.26.53-4.87.85l-.16.03s-.09.01-.14.03l-.65.13c-.31.06-.63.12-.95.2-10.2,1.95-20.66,4.52-31.17,7.64-1.63.46-3.23.95-4.83,1.45-1.37.42-2.73.85-4.09,1.29l-1.32.43c-.72.23-1.43.47-2.15.72-6.04,2.06-12.71,4.56-20.38,7.64l-2.68,1.08v-.2l-1.24.51c-1.22.51-2.46,1.02-3.74,1.55l-.13.07c-1.08.46-2.03.86-2.98,1.29l-2.33,1.02c-.39.17-.76.33-1.11.49l-3.62,1.65c-1.81.83-3.59,1.67-5.31,2.51-.47.22-.92.44-1.43.69-.89.43-1.78.89-2.67,1.33l-1.35.68c-4.54,2.3-8.8,4.64-12.64,6.9-7.07,4.15-30.9,16.54-40.81,1.63-8.49-12.76,5.34-31.73,11.68-39.3,1.11-1.28,6.22-6.37,10.34-10.14-.31-.3-.66-.66-1-1.03-.74-.78-1.45-1.58-2.14-2.41l-.09-.1c-.08-.09-.17-.2-.26-.31-.39-.5-.73-.9-1.03-1.33-.73-.96-1.43-1.97-2.08-2.98-.83.79-1.65,1.58-2.29,2.2l-.7.68c-3.52,3.35-7.81,7.64-8.68,8.68-9.75,11.65-24.34,33.88-12.41,51.81,10.12,15.21,30.59,15.79,54.77,1.58,6.05-3.57,14.17-7.71,22.85-11.67,1.69-.76,3.42-1.52,5.2-2.3,1.71-.74,3.44-1.48,5.25-2.24l1.54-.64c2.6-1.07,5.25-2.12,8.07-3.22,1.71-.66,3.48-1.33,5.26-1.99,4.93-1.82,10-3.58,15.05-5.21,12.88-4.15,25.73-7.51,38.2-9.99l.46-.09c1.56-.3,3.15-.61,4.78-.89,1.71-.31,3.44-.6,5.2-.87,7.9-1.26,15.66-2.15,23.06-2.64,3.46-.22,6.97-.38,10.42-.44,1.21-.03,2.42-.04,3.63-.04,10.3,0,20.23.81,29.57,2.4l1.04.18c1.05.2,2.08.38,3.09.57l1.13.26c1.69.34,3.4.73,5.13,1.16l1.22.33c5.18,1.34,10.18,2.97,14.87,4.84,1.97.77,3.67,1.48,5.21,2.17,1.9.86,3.57,1.65,5.22,2.49,2.63,1.33,5.12,2.68,7.41,4.04,1.85,1.11,3.76,2.32,5.81,3.72,37.7,25.47,53.02,67.06,58.8,89.6.12.4.22.79.3,1.16.34,1.3,1.18,2.45,2.37,3.18,1.2.7,2.6.91,3.96.57,1.34-.34,2.47-1.17,3.18-2.37.73-1.2.94-2.59.6-3.95Z"/>
            <path class="cls-5" d="M404.17,442.92c-5.07-20.21-18.2-58.35-49.3-86.74-1.29-1.17-2.6-2.33-3.96-3.48-5.69-4.84-11.84-9.24-18.27-13.07-1.82-1.08-3.55-2.04-5.25-2.94-1.12-.6-2.25-1.18-3.36-1.73-.18-.1-.36-.2-.51-.25-1.04-.52-1.97-.98-2.77-1.34-.42-.21-.82-.39-1.24-.59l-.29-.12c-.2-.09-.39-.17-.49-.22-1.68-.76-3.16-1.39-4.54-1.95-1.98-.81-3.74-1.47-5.35-2.04-.89-.33-1.76-.62-2.66-.93-4.39-1.48-9.04-2.81-13.84-3.93l-.7-.17c-1.21-.27-2.42-.55-3.66-.79l-.98-.17c-2.17-.43-3.83-.72-5.34-.95-9.92-1.6-20.64-2.38-31.89-2.32-.66,0-1.34,0-2.01.01-3.54.05-7.07.18-10.36.39h-.38c-.59.05-1.16.09-1.71.13-6.24.42-12.73,1.11-19.31,2.06l-.16.03c-.61.09-1.22.17-1.91.29l-.18.03c-1.77.26-3.54.53-5.26.83-1.64.26-3.27.55-4.88.86-.17.01-.34.05-.44.08l-.57.1c-.35.07-.7.14-1,.21-10.27,1.97-20.87,4.57-31.48,7.72-1.63.46-3.28.95-4.9,1.47-1.38.42-2.75.85-4.14,1.3l-1.32.43c-.74.25-1.47.48-2.19.73-5.4,1.84-11.28,4.02-17.9,6.64l-2.57.83-4.05,1.64c-1.24.51-2.5,1.04-3.84,1.6-.08.04-.16.06-.21.09-.99.42-1.95.83-2.89,1.25l-2.36,1.03c-.4.18-.82.35-1.16.52l-2.86,1.29h-1.52v.72c-1.58.73-3.11,1.46-4.61,2.19-.46.22-.91.44-1.42.69-.94.46-1.84.91-2.73,1.35l-1.35.68c-4.62,2.36-8.96,4.71-12.86,7.03-6.32,3.71-27.57,14.88-35.57,2.83-7.23-10.86,6.91-29.26,11.39-34.6,1-1.16,7.24-7.37,11.54-11.18l1.67-1.46-1.67-1.47c-.42-.36-.82-.74-1.22-1.15l-.14-.14c-.31-.3-.62-.62-.95-.98-.69-.73-1.34-1.46-1.97-2.2l-.4-.52c-.29-.33-.55-.65-.83-1.07-1.17-1.54-2.23-3.12-3.15-4.73l-.9-1.56-.34-.57-1.78,1.69c-.59.55-1.24,1.15-1.86,1.76-.81.77-1.59,1.52-2.21,2.12l-.69.66c-3.36,3.2-7.92,7.72-8.98,9.01-10.46,12.49-25.99,36.42-12.67,56.47,11.39,17.13,33.83,18.18,60,2.77,5.94-3.49,13.93-7.57,22.49-11.46,1.67-.75,3.4-1.52,5.16-2.29,1.67-.73,3.37-1.47,5.16-2.2l1.54-.64c2.58-1.07,5.2-2.11,7.99-3.19,1.69-.66,3.45-1.33,5.21-1.97,4.88-1.81,9.9-3.54,14.9-5.16,12.73-4.11,25.44-7.43,37.73-9.87l.46-.09c1.56-.31,3.12-.6,4.73-.87,1.71-.31,3.39-.6,5.13-.87,7.79-1.25,15.43-2.12,22.71-2.59,3.4-.22,6.85-.38,10.23-.44,11.34-.22,22.28.57,32.46,2.3l1.03.18c1.02.18,2.03.35,2.94.53l1.12.26c1.69.34,3.33.72,5,1.13l1.2.31c5.03,1.32,9.88,2.89,14.43,4.7,1.9.74,3.55,1.43,5.04,2.11,1.85.83,3.45,1.59,5.07,2.41,2.55,1.29,4.96,2.6,7.16,3.91,1.8,1.07,3.63,2.24,5.63,3.59,36.63,24.75,51.56,65.34,57.23,87.41.09.33.18.66.27,1.03.59,2.36,2.06,4.35,4.15,5.61,1.45.86,3.05,1.29,4.69,1.29.74,0,1.48-.09,2.23-.27,2.36-.6,4.35-2.07,5.57-4.15.87-1.43,1.32-3.05,1.32-4.69,0-.73-.08-1.47-.26-2.2ZM399.77,447.8c-.7,1.2-1.84,2.03-3.18,2.37-1.35.34-2.76.13-3.96-.57-1.18-.73-2.03-1.87-2.37-3.18-.08-.36-.18-.76-.3-1.16-5.78-22.54-21.11-64.13-58.8-89.6-2.04-1.41-3.96-2.62-5.81-3.72-2.29-1.35-4.78-2.71-7.41-4.04-1.65-.83-3.32-1.63-5.22-2.49-1.54-.69-3.24-1.41-5.21-2.17-4.69-1.87-9.69-3.5-14.87-4.84l-1.22-.33c-1.73-.43-3.44-.82-5.13-1.16l-1.13-.26c-1-.2-2.03-.38-3.09-.57l-1.04-.18c-9.34-1.59-19.27-2.4-29.57-2.4-1.21,0-2.42.01-3.63.04-3.45.06-6.95.22-10.42.44-7.4.49-15.16,1.38-23.06,2.64-1.76.27-3.49.56-5.2.87-1.63.27-3.22.59-4.78.89l-.46.09c-12.47,2.47-25.33,5.83-38.2,9.99-5.05,1.63-10.12,3.39-15.05,5.21-1.78.66-3.55,1.33-5.26,1.99-2.83,1.09-5.47,2.15-8.07,3.22l-1.54.64c-1.81.76-3.54,1.5-5.25,2.24-1.77.78-3.5,1.55-5.2,2.3-8.68,3.96-16.8,8.1-22.85,11.67-24.18,14.22-44.65,13.63-54.77-1.58-11.93-17.93,2.66-40.16,12.41-51.81.87-1.04,5.17-5.34,8.68-8.68l.7-.68c.64-.62,1.46-1.41,2.29-2.2.65,1.02,1.35,2.02,2.08,2.98.3.43.64.83,1.03,1.33.09.12.18.22.26.31l.09.1c.69.83,1.39,1.63,2.14,2.41.34.36.69.73,1,1.03-4.11,3.78-9.23,8.87-10.34,10.14-6.34,7.57-20.17,26.54-11.68,39.3,9.91,14.91,33.74,2.53,40.81-1.63,3.84-2.27,8.1-4.6,12.64-6.9l1.35-.68c.89-.44,1.78-.9,2.67-1.33.51-.25.96-.47,1.43-.69,1.72-.85,3.5-1.68,5.31-2.51l3.62-1.65c.35-.17.72-.33,1.11-.49l2.33-1.02c.95-.43,1.9-.83,2.98-1.29l.13-.07c1.28-.53,2.51-1.04,3.74-1.55l1.24-.51v.2l2.68-1.08c7.67-3.09,14.34-5.59,20.38-7.64.72-.25,1.43-.48,2.15-.72l1.32-.43c1.35-.44,2.72-.87,4.09-1.29,1.6-.49,3.2-.99,4.83-1.45,10.51-3.12,20.98-5.69,31.17-7.64.33-.08.64-.13.95-.2l.65-.13c.05-.01.1-.01.14-.03l.16-.03c1.61-.31,3.22-.59,4.87-.85,1.69-.3,3.44-.57,5.17-.82l.33-.05c.59-.09,1.16-.17,1.74-.26l.17-.03c6.5-.94,12.89-1.61,19.06-2.03.55-.04,1.11-.08,1.65-.12h.25c3.36-.21,6.82-.34,10.31-.39.65-.01,1.3-.01,1.95-.01,11.03-.08,21.54.69,31.28,2.27,1.47.22,3.07.51,5.22.94l.98.17c1.17.22,2.33.49,3.49.77l.7.16c4.67,1.09,9.21,2.38,13.48,3.83.87.3,1.72.59,2.59.9,1.58.56,3.28,1.21,5.21,1.99,1.33.53,2.76,1.16,4.47,1.93.14.07.29.13.44.2l.3.13c.35.16.7.31,1.13.53.85.38,1.72.81,2.8,1.34.09.04.18.08.35.17,1.12.56,2.23,1.12,3.32,1.73,1.67.87,3.35,1.81,5.1,2.85,6.24,3.71,12.2,7.98,17.73,12.68,1.3,1.12,2.59,2.25,3.85,3.4,30.34,27.71,43.18,65.01,48.13,84.79.34,1.35.13,2.75-.6,3.95Z"/>
          </g>
          <g>
            <path class="cls-5" d="M268.07,447.32c-.77-7.45-6.97-12.01-12.98-15.51-13.87-7.58-28.89-10.33-43.1-12.16-29.92-3.4-61.39-1.15-91.02,6.52-24.53,6.24-50.12,10.47-71.09-.6-20.73-10.91-33.65-33.29-31.39-54.4,3.03-28.46,31.64-52.41,48.42-64.14.42-.29.82-.57,1.24-.86l.89,1.87c.62-.61,1.28-1.21,1.86-1.76l1.78-1.69.34.57h.01s-.72-1.48-.72-1.48c-.21-.43-.42-.86-.61-1.31-.23-.53-.47-1.09-.68-1.65l-.17-.44c-.08-.21-.16-.4-.22-.61l-.16-.43c-.25-.69-.47-1.38-.68-2.11-.23-.79-.47-1.61-.66-2.45-.17-.65-.33-1.34-.47-2.04-.23-1.22-.42-2.36-.55-3.46-.05-.38-.09-.76-.12-1.13l-.21-3.24-2.76,1.69c-2.97,1.81-5.86,3.7-8.57,5.6-19.32,13.52-52.32,41.51-56.11,77.15-3.07,28.79,13.41,57.92,41.02,72.49,26.47,13.93,56.08,9.24,84.14,2.1,27.43-7.11,56.59-9.21,84.27-6.07,12.37,1.6,25.34,3.92,36.35,9.96,2.76,1.6,3.85,2.58,4.19,2.92.95,1.46,4.62,6.72,8.66,6.72.27,0,.51-.01.92-.05,4.77-.48,8.28-4.47,8.18-9.22v-.08c0-.22,0-.43-.03-.68ZM264.19,448.11c.05,2.75-1.94,5.03-4.62,5.3-.25.01-.4.03-.57.03-1.47,0-4.11-2.94-5.46-5.07l-.21-.27c-.52-.59-1.91-1.85-5.27-3.79-11.61-6.38-25.01-8.79-37.8-10.44-8.5-.96-17.15-1.45-25.83-1.45-20.08,0-40.4,2.56-59.88,7.62-27.29,6.94-56.04,11.54-81.34-1.78-26.21-13.83-41.86-41.39-38.96-68.61,3.63-34.1,35.69-61.22,54.47-74.36,1.86-1.3,3.79-2.59,5.78-3.87.1.64.22,1.29.35,1.97.14.76.33,1.51.49,2.21.22.9.47,1.77.72,2.63.23.79.48,1.56.76,2.33l.13.38c.07.17.12.33.17.48l.17.42c.01.05.04.12.05.17-.87.59-1.76,1.2-2.66,1.82-17.33,12.12-46.88,36.93-50.07,66.93-2.42,22.67,11.34,46.63,33.45,58.28,22.15,11.68,48.59,7.34,73.89.91,29.15-7.55,60.14-9.77,89.57-6.42,13.79,1.78,28.39,4.44,41.65,11.69,5.12,2.97,10.43,6.78,11.02,12.45v.44Z"/>
            <path class="cls-2" d="M264.19,447.67v.44c.05,2.75-1.94,5.03-4.62,5.3-.25.01-.4.03-.57.03-1.47,0-4.11-2.94-5.46-5.07l-.21-.27c-.52-.59-1.91-1.85-5.27-3.79-11.61-6.38-25.01-8.79-37.8-10.44-8.5-.96-17.15-1.45-25.83-1.45-20.08,0-40.4,2.56-59.88,7.62-27.29,6.94-56.04,11.54-81.34-1.78-26.21-13.83-41.86-41.39-38.96-68.61,3.63-34.1,35.69-61.22,54.47-74.36,1.86-1.3,3.79-2.59,5.78-3.87.1.64.22,1.29.35,1.97.14.76.33,1.51.49,2.21.22.9.47,1.77.72,2.63.23.79.48,1.56.76,2.33l.13.38c.07.17.12.33.17.48l.17.42c.01.05.04.12.05.17-.87.59-1.76,1.2-2.66,1.82-17.33,12.12-46.88,36.93-50.07,66.93-2.42,22.67,11.34,46.63,33.45,58.28,22.15,11.68,48.59,7.34,73.89.91,29.15-7.55,60.14-9.77,89.57-6.42,13.79,1.78,28.39,4.44,41.65,11.69,5.12,2.97,10.43,6.78,11.02,12.45Z"/>
            <path class="cls-5" d="M72.68,304.6l-1.78,1.69c-.59.55-1.24,1.15-1.86,1.76v.04s3.98-2.92,3.98-2.92l-.34-.57Z"/>
          </g>
        </g>
        <g>
          <path class="cls-5" d="M63.72,313.25c-.92,0-1.84-.39-2.49-1.15-1.16-1.37-.99-3.43.38-4.59,2-1.69,4.09-3.37,6.23-5,1.43-1.09,3.47-.81,4.56.62,1.09,1.43.81,3.47-.62,4.56-2.04,1.56-4.05,3.16-5.96,4.78-.61.52-1.36.77-2.1.77Z"/>
          <path class="cls-5" d="M309.98,415.57c-1.1,0-2.17-.56-2.78-1.56-2.77-4.54-5.94-8.74-9.42-12.5-1.22-1.32-1.15-3.38.17-4.6,1.32-1.22,3.38-1.15,4.6.17,3.79,4.07,7.22,8.63,10.21,13.54.94,1.53.45,3.54-1.09,4.47-.53.32-1.11.48-1.69.48ZM68.8,411.32c-.24,0-.49-.03-.74-.09-1.24-.29-2.51-.62-3.77-.99-2.05-.59-6.86-1.99-12.32-4.57-1.63-.77-2.32-2.71-1.55-4.33.77-1.63,2.71-2.32,4.33-1.55,4.98,2.36,9.44,3.65,11.35,4.2,1.15.33,2.3.64,3.43.9,1.75.41,2.84,2.15,2.44,3.91-.35,1.5-1.69,2.52-3.17,2.52ZM95.73,411.09c-1.46,0-2.79-1-3.16-2.48-.43-1.75.64-3.51,2.39-3.94,4.41-1.08,9.15-2.72,14.92-5.16,1.66-.7,3.57.08,4.27,1.73.7,1.66-.08,3.57-1.73,4.27-6.1,2.58-11.15,4.32-15.9,5.49-.26.06-.52.1-.78.1ZM135.94,394.56c-1.25,0-2.45-.73-2.98-1.95-.72-1.65.03-3.57,1.68-4.29,5.46-2.39,10.47-4.41,15.34-6.18,1.69-.62,3.56.26,4.17,1.95.61,1.69-.26,3.56-1.95,4.17-4.73,1.72-9.62,3.69-14.95,6.02-.42.19-.87.27-1.3.27ZM33.18,388.4c-1.16,0-2.27-.62-2.86-1.7-.52-.96-1-1.95-1.42-2.93-1.85-4.35-2.82-9.15-2.88-14.27-.02-1.8,1.42-3.27,3.22-3.29h.04c1.78,0,3.23,1.43,3.25,3.22.05,4.27.84,8.24,2.36,11.8.34.8.73,1.6,1.15,2.38.86,1.58.27,3.56-1.31,4.41-.49.27-1.02.39-1.55.39ZM278.53,386.25c-.5,0-1.01-.12-1.49-.36-4.52-2.32-9.43-4.3-14.59-5.87-1.72-.52-2.69-2.34-2.16-4.06.52-1.72,2.35-2.69,4.06-2.17,5.53,1.69,10.8,3.81,15.67,6.31,1.6.82,2.23,2.78,1.41,4.38-.58,1.12-1.72,1.77-2.9,1.77ZM177.19,380.89c-1.5,0-2.85-1.04-3.18-2.56-.38-1.76.73-3.49,2.49-3.87,1.74-.38,3.52-.74,5.33-1.08,2.74-.52,6.5-1.24,10.9-1.95,1.77-.3,3.45.92,3.73,2.69.29,1.78-.92,3.45-2.7,3.73-4.31.7-8.01,1.4-10.72,1.92-1.76.33-3.48.68-5.16,1.05-.23.05-.47.08-.7.08ZM236.66,375.42c-.08,0-.15,0-.23,0-3.38-.23-6.89-.35-10.45-.35-1.8.02-3.68.03-5.55.09-1.8.03-3.3-1.35-3.36-3.15-.06-1.8,1.35-3.3,3.15-3.36,1.95-.06,3.91-.09,5.77-.09,3.7,0,7.37.12,10.89.37,1.79.12,3.15,1.68,3.02,3.47-.12,1.72-1.55,3.03-3.24,3.03ZM36.17,346.64c-.5,0-1-.12-1.48-.36-1.6-.82-2.24-2.78-1.42-4.38,2.44-4.78,5.49-9.58,9.04-14.26,1.09-1.43,3.13-1.71,4.56-.62,1.43,1.09,1.71,3.13.62,4.56-3.33,4.38-6.16,8.85-8.43,13.29-.58,1.13-1.72,1.78-2.9,1.78Z"/>
          <path class="cls-5" d="M322.49,448.24c-1.51,0-2.86-1.06-3.18-2.59-.52-2.51-1.13-4.99-1.79-7.38-.48-1.73.53-3.53,2.27-4.01,1.73-.48,3.53.53,4.01,2.27.7,2.53,1.34,5.15,1.89,7.8.37,1.76-.76,3.48-2.52,3.85-.22.05-.45.07-.67.07Z"/>
        </g>
        <g>
          <path class="cls-5" d="M195.54,240.85h0c-9.7-36.08-28.96-57.62-54.24-60.65-.61-.07-1.22-.13-1.85-.18l-.25-.03c-1.63-.12-3.36-.21-5.04-.12h-.33c-1.8.04-3.7.18-5.65.43-.59.08-1.17.17-1.76.27-16.52,2.84-31.15,14.06-41.16,31.59-6.67,11.64-11.6,25.59-15.1,42.62-2.23,10.72-4.3,22.16-3.05,33.69.03.46.08.92.13,1.37.14,1.19.34,2.4.6,3.74.16.77.33,1.51.51,2.23.21.89.46,1.77.7,2.63.23.79.48,1.55.76,2.33l.14.38c.05.16.1.31.17.48l.17.43c.26.7.55,1.42.85,2.1.22.49.44.98.66,1.43,1.42,2.97,3.1,5.73,5.1,8.37.31.44.64.85,1.03,1.33.09.12.18.22.27.33l.08.09c.7.85,1.41,1.64,2.14,2.41.36.4.73.78,1.07,1.09l.12.12c.47.47.94.91,1.38,1.3,9.06,8.29,21.28,13.06,36.3,14.18,1.67.13,3.41.26,5.16.38v19.37l2.81-1.37c.35-.17.72-.33,1.09-.48l2.33-1.03c.95-.42,1.91-.83,2.98-1.29l.13-.05c1.28-.53,2.53-1.05,3.75-1.56l5.1-2.07-.04-4.21h.07v-6.89c2.83-.09,5.39-.27,7.81-.53h.12c3.29-.35,6.59-.96,9.79-1.82,16.17-4.25,29.3-14.36,36-27.73,1.68-3.39,3.01-7.07,3.91-10.92.29-1.19.51-2.25.68-3.26.2-1.07.36-2.24.51-3.57,2.04-17.08-2.76-35.01-5.94-46.88M191.77,241.9c3.1,11.58,7.79,29.06,5.83,45.42-.13,1.24-.29,2.32-.47,3.32-.17.95-.38,1.95-.64,3.05-.83,3.57-2.04,6.97-3.61,10.08-6.18,12.37-18.4,21.73-33.52,25.72-2.97.79-6.03,1.37-9.08,1.68h-.14c-2.86.33-5.96.51-9.47.57l-1.93.04v6.81h-.1l.05,5.48-2.66,1.09c-1.24.51-2.49,1.03-3.82,1.59-.1.04-.18.08-.2.08-1,.43-1.98.85-2.93,1.28l-.77.33v-16.95l-1.85-.09c-2.29-.13-4.67-.31-6.93-.48-14.13-1.05-25.55-5.48-33.97-13.19-.42-.36-.83-.76-1.24-1.16l-.14-.14c-.31-.3-.62-.62-.95-.98-.69-.72-1.34-1.46-1.97-2.21l-.4-.5c-.27-.34-.55-.66-.83-1.07-1.89-2.5-3.44-5.04-4.75-7.77-.21-.44-.4-.87-.6-1.31-.25-.55-.48-1.11-.69-1.67l-.18-.47c-.08-.18-.14-.38-.21-.57l-.14-.43c-.25-.69-.48-1.39-.69-2.11-.23-.81-.46-1.61-.66-2.45-.16-.66-.33-1.35-.46-2.04-.25-1.25-.43-2.37-.56-3.46-.04-.38-.09-.77-.13-1.24-1.18-11.04.82-22.14,2.98-32.55,3.42-16.63,8.23-30.2,14.69-41.47,9.43-16.5,23.07-27.04,38.41-29.69.53-.08,1.08-.17,1.61-.25,1.8-.22,3.55-.35,5.26-.39h.38c1.52-.09,3.14,0,4.65.12h.22c.55.06,1.11.13,1.65.18,23.58,2.84,41.67,23.35,50.91,57.77"/>
          <path class="cls-5" d="M181.67,244.54c-4.71-17.51-16.51-47.33-42.58-50.16-1.82-.2-3.46-.26-5.17-.2-1.8.05-3.55.23-5.23.53-16.46,2.89-26.5,16.61-31.02,24.53-5.89,10.27-10.31,22.84-13.53,38.42-2.28,11.03-4.34,22.67-2.28,33.11,1.08,5.5,3.22,10.29,6.48,14.61.29.38.53.69.79.99,6.91,8.46,17.12,13.09,31.18,14.13l.66.05c1.82.13,3.68.26,5.61.38l2.07.13v-13.41l-19.4-19.4c-.99-.98-1.52-2.29-1.52-3.68s.53-2.68,1.52-3.67c.98-.99,2.29-1.54,3.68-1.54s2.7.55,3.68,1.55l12.03,12.03v-9.04l-27.42-27.42c-.99-.98-1.52-2.28-1.52-3.67s.53-2.7,1.52-3.67c2.03-2.03,5.34-2.03,7.37-.01l20.05,20.07v-29.66l-15.17-15.16c-.99-.98-1.52-2.29-1.52-3.68s.53-2.7,1.52-3.67c2.03-2.03,5.34-2.03,7.37-.01l7.45,7.46v-14.36c0-.62.12-1.22.35-1.85.76-2.01,2.71-3.36,4.86-3.36.08,0,.1.01.13.01l.27.04c2.7.18,4.8,2.45,4.8,5.16v14.84l7.17-7.19c.98-.99,2.29-1.54,3.68-1.54s2.7.55,3.68,1.55c.98.98,1.52,2.28,1.52,3.66s-.55,2.71-1.52,3.68c-9.27,9.21-12.67,12.57-13.96,13.83l-.59.57v14.4l9.75-9.73c.98-.99,2.29-1.54,3.68-1.54s2.68.55,3.67,1.54c2.02,2.02,2.02,5.33,0,7.36-11.21,11.16-15.12,15.01-16.52,16.39l-.59.57v24l18.22-18.23c2.03-2.03,5.34-2.03,7.37-.01,2.02,2.04,2.02,5.35,0,7.37-17.62,17.54-23.27,23.16-25,24.86l-.59.57v14.26l1.98-.04c2.96-.05,5.76-.21,8.33-.47,7.55-.81,14.74-3.24,20.81-7.06,3.03-1.91,5.73-4.13,8.03-6.6,2.3-2.47,4.22-5.18,5.66-8.07,7.67-15.31,3.27-35.34-1.89-54.56ZM167.78,310.47c-5.56,3.5-12.17,5.74-19.14,6.47-1.88.2-3.88.34-5.99.4v-8.62c2.29-2.27,8.44-8.37,24.44-24.31,3.54-3.54,3.54-9.32,0-12.89-3.54-3.54-9.34-3.54-12.89,0l-11.55,11.56v-12.92c1.81-1.77,6-5.94,15.96-15.85,3.54-3.55,3.54-9.34,0-12.89-1.72-1.72-4.01-2.67-6.43-2.67s-4.73.95-6.45,2.67l-3.09,3.09v-3.35c1.64-1.61,5.26-5.2,13.4-13.28,1.72-1.72,2.67-4,2.67-6.45s-.95-4.7-2.67-6.42c-1.71-1.73-4-2.7-6.45-2.7s-4.74.96-6.45,2.68l-.51.51v-5.4c0-4.71-3.65-8.67-8.33-9.05-.25-.04-.51-.06-.78-.06-3.76,0-7.17,2.37-8.5,5.87-.4,1.04-.61,2.14-.61,3.24v4.92l-.78-.78c-3.54-3.54-9.32-3.54-12.89,0-1.72,1.73-2.67,4.01-2.67,6.44s.95,4.73,2.67,6.46l14.02,14.01v18.59l-13.39-13.39c-3.54-3.54-9.32-3.54-12.89,0-1.72,1.73-2.67,4.01-2.67,6.44s.95,4.71,2.67,6.45l16.42,16.41c-.64-.13-1.29-.21-1.95-.21-2.45,0-4.74.96-6.45,2.68-1.72,1.73-2.67,4.01-2.67,6.43s.95,4.73,2.67,6.45l18.26,18.27v7.63c-1.18-.08-2.34-.17-3.48-.25l-.66-.05c-12.94-.96-22.25-5.12-28.46-12.71-.22-.26-.43-.52-.69-.86-2.92-3.85-4.82-8.11-5.78-13.02-1.91-9.73.08-20.92,2.28-31.56,3.14-15.17,7.41-27.37,13.09-37.28,4.18-7.33,13.42-20.01,28.31-22.63,1.5-.27,3.07-.43,4.69-.48,1.52-.04,2.98.01,4.62.2,23.75,2.57,34.77,30.73,39.22,47.28,3.09,11.48,5.89,23.24,5.89,33.88,0,6.5-1.04,12.57-3.71,17.9-2.59,5.14-6.84,9.69-12.29,13.13Z"/>
        </g>
      </g>
    </g>
  </g>
</svg>